Coordinates
version=1
nRows=8
nColumns=63
inDegrees=yes

Units are S.I. units (second, meters, Newtons, ...)
If the header above contains a line with 'inDegrees', this indicates whether rotational values are in degrees (yes) or radians (no).

endheader
time	pelvis_tilt	pelvis_list	pelvis_rotation	pelvis_tx	pelvis_ty	pelvis_tz	hip_flexion_r	hip_adduction_r	hip_rotation_r	knee_angle_r	knee_angle_r_beta	ankle_angle_r	subtalar_angle_r	mtp_angle_r	hip_flexion_l	hip_adduction_l	hip_rotation_l	knee_angle_l	knee_angle_l_beta	ankle_angle_l	subtalar_angle_l	mtp_angle_l	L5_S1_Flex_Ext	L5_S1_Lat_Bending	L5_S1_axial_rotation	L4_L5_Flex_Ext	L4_L5_Lat_Bending	L4_L5_axial_rotation	L3_L4_Flex_Ext	L3_L4_Lat_Bending	L3_L4_axial_rotation	L2_L3_Flex_Ext	L2_L3_Lat_Bending	L2_L3_axial_rotation	L1_L2_Flex_Ext	L1_L2_Lat_Bending	L1_L2_axial_rotation	L1_T12_Flex_Ext	L1_T12_Lat_Bending	L1_T12_axial_rotation	Abs_r3	Abs_r2	Abs_r1	Abs_t1	Abs_t2	neck_flexion	neck_bending	neck_rotation	arm_flex_r	arm_add_r	arm_rot_r	elbow_flex_r	pro_sup_r	wrist_flex_r	wrist_dev_r	arm_flex_l	arm_add_l	arm_rot_l	elbow_flex_l	pro_sup_l	wrist_flex_l	wrist_dev_l
3.285714	-4.502496	-3.355011	93.718277	0.277388	0.732473	0.771072	-8.153943	0.181816	0.380365	0.192847	0.003366	15.512943	-11.567793	0.000000	-6.870123	-1.042807	7.485694	0.240807	0.004203	32.695134	4.343657	0.000000	0.098093	0.485529	-0.676293	0.182169	0.645753	-0.718561	0.161158	1.180515	-0.718561	0.112111	1.180515	-0.591757	0.091089	0.990091	-0.549488	0.056051	0.752084	-0.507220	0.700671	5.492400	-3.761340	0.000000	0.000000	25.196336	-3.375374	2.080484	19.300989	-13.975764	122.250709	18.143921	16.211902	-2.351315	-1.638677	19.026085	-5.247165	137.626723	13.005785	21.059831	-6.537421	-9.009166
3.306122	-4.367226	-3.389569	93.714236	0.277159	0.731777	0.770323	-8.161322	0.301771	0.426987	0.189197	0.003302	15.585648	-11.248912	0.000000	-6.878929	-1.157826	8.858565	0.240416	0.004196	32.280596	2.466779	0.000000	0.106569	0.506850	-0.693330	0.197908	0.674111	-0.736663	0.175081	1.232355	-0.736663	0.121797	1.232355	-0.606664	0.098960	1.033569	-0.563331	0.060893	0.785111	-0.519998	0.761208	5.733590	-3.856094	0.000000	0.000000	25.591415	-3.484716	1.685121	18.426321	-14.822258	125.108152	16.277645	14.600751	-3.039520	-2.854919	18.113438	-5.648505	142.766772	10.925779	17.085082	-7.093144	-9.511576
3.326531	-4.271396	-3.452250	93.779039	0.276882	0.731011	0.769761	-8.141793	0.389129	0.364099	0.187115	0.003266	15.604928	-10.919742	0.000000	-6.832059	-1.235987	10.288998	0.240971	0.004206	31.861763	0.551044	0.000000	0.115068	0.520443	-0.728091	0.213692	0.692189	-0.773597	0.189045	1.265405	-0.773597	0.131511	1.265405	-0.637080	0.106852	1.061287	-0.591574	0.065750	0.806166	-0.546068	0.821916	5.887354	-4.049423	0.000000	0.000000	26.000166	-3.486426	1.236981	17.358679	-15.715192	127.049566	14.879753	12.485122	-3.662799	-3.837270	17.070676	-6.147215	147.474963	9.151082	13.373119	-7.602694	-9.812976
3.346939	-4.217396	-3.541414	93.895255	0.276589	0.730200	0.769453	-8.092305	0.440328	0.266127	0.186547	0.003256	15.551403	-10.692001	0.000000	-6.725914	-1.274685	11.558711	0.242708	0.004236	31.499845	-1.116193	0.000000	0.122121	0.526564	-0.777139	0.226792	0.700330	-0.825710	0.200633	1.280287	-0.825710	0.139573	1.280287	-0.679997	0.113402	1.073769	-0.631426	0.069780	0.815647	-0.582854	0.872301	5.956594	-4.322215	0.000000	0.000000	26.400091	-3.414489	0.724314	16.145570	-16.628192	128.109557	13.941312	9.952302	-4.171059	-4.549541	15.923114	-6.734928	151.724009	7.702524	10.337525	-8.028335	-9.871025
3.367347	-4.211080	-3.649496	94.061893	0.276277	0.729390	0.769447	-8.017592	0.449037	0.088407	0.187848	0.003279	15.460308	-10.508531	0.000000	-6.566267	-1.267327	12.652376	0.245364	0.004282	31.199086	-2.517423	0.000000	0.125696	0.525128	-0.838689	0.233430	0.698421	-0.891107	0.206506	1.276797	-0.891107	0.143658	1.276797	-0.733853	0.116721	1.070842	-0.681435	0.071823	0.813424	-0.629017	0.897834	5.940358	-4.664538	0.000000	0.000000	26.765229	-3.290985	0.150969	14.848399	-17.540704	128.250735	13.413387	7.215907	-4.552134	-4.955528	14.722853	-7.420722	155.460673	6.587489	7.723945	-8.242236	-9.701301
3.387755	-4.246384	-3.762991	94.272887	0.275939	0.728627	0.769744	-7.929177	0.420701	-0.125716	0.190545	0.003326	15.346699	-10.417702	0.000000	-6.369384	-1.220579	13.565584	0.249150	0.004348	30.962943	-3.650319	0.000000	0.124000	0.517565	-0.909960	0.230281	0.688361	-0.966833	0.203720	1.258407	-0.966833	0.141720	1.258407	-0.796215	0.115146	1.055418	-0.739343	0.070854	0.801708	-0.682470	0.885720	5.854797	-5.060926	0.000000	0.000000	27.080129	-3.135494	-0.475797	13.549845	-18.422434	127.615947	13.194628	4.519357	-4.735817	-5.073895	13.540840	-8.225528	158.133664	5.831025	5.707618	-8.167006	-9.390212
3.408163	-4.319436	-3.874168	94.522691	0.275579	0.727923	0.770286	-7.837309	0.359066	-0.264563	0.193443	0.003376	15.195696	-10.559089	0.000000	-6.149877	-1.139136	14.206217	0.253844	0.004430	30.812542	-4.409487	0.000000	0.116977	0.504473	-0.987074	0.217237	0.670949	-1.048766	0.192181	1.226576	-1.048766	0.133693	1.226576	-0.863690	0.108624	1.028722	-0.801998	0.066840	0.781429	-0.740305	0.835552	5.706702	-5.489809	0.000000	0.000000	27.341898	-2.971641	-1.169235	12.240070	-19.251518	125.965269	13.180129	2.725061	-4.672545	-4.942683	12.364249	-9.182432	158.783942	5.472658	5.485115	-7.876058	-8.962556
3.428571	-4.420421	-3.962518	94.828316	0.275168	0.727296	0.771007	-7.767030	0.278878	-0.558936	0.197342	0.003444	15.111206	-10.583850	0.000000	-5.933469	-1.038878	14.574866	0.259118	0.004522	30.776882	-4.754943	0.000000	0.103856	0.486914	-1.067549	0.192871	0.647596	-1.134271	0.170625	1.183883	-1.134271	0.118697	1.183883	-0.934105	0.096441	0.992915	-0.867384	0.059343	0.754230	-0.800662	0.741833	5.508068	-5.937387	0.000000	0.000000	27.538016	-2.828593	-1.972260	10.937279	-20.022136	123.067351	13.296376	2.415896	-4.450337	-4.725138	11.210301	-10.289622	157.006869	5.510853	7.846449	-7.556847	-8.397875
